# xmcd
# Track frame offsets:
# 150
# 15945
# 29325
# 45139
# 62737
# 77867
# 95527
# 110304
# 124892
# 141362
# 156567
# 175715
# 189915
# 207740
#
# Disc length: 2971 seconds
# Revision: 0
# Processed by: cddbd v1.4PL0 Copyright (c) Steve Scherf et al.
# Submitted via: VisiTrax 2.9.5.180 - For more info visit www.synapsa.com
#
DISCID=b80b990e
DTITLE=Bellamy Brothers - Heartbreak Overload
DYEAR=1995
DGENRE=
TTITLE0=Rip Off The Knob
TTITLE1=Not
TTITLE2=Heartbreak Overload
TTITLE3=Blame It...On The Fire In My Heart
TTITLE4=On A Summer Night
TTITLE5=Sweet Nostalgia
TTITLE6=Bubba
TTITLE7=Stayin`in Love ( with special guest Freddie Fender and Flaco Jeminez )
TTITLE8=D-D-D-D-Divorcee
TTITLE9=Can I Come On Home to You
TTITLE10=Hemingway Hideaway
TTITLE11=The Andy Griffith Show
TTITLE12=Hard On A Heart
TTITLE13=Nobody`s Perfect
EXTD=
EXTT0=
EXTT1=
EXTT2=
EXTT3=
EXTT4=
EXTT5=
EXTT6=
EXTT7=
EXTT8=
EXTT9=
EXTT10=
EXTT11=
EXTT12=
EXTT13=
PLAYORDER=
